<?xml version="1.0" encoding="utf-8"?>

<!DOCTYPE svg PUBLIC "-//W3C//DTD SVG 1.1//EN" "http://www.w3.org/Graphics/SVG/1.1/DTD/svg11.dtd">

<svg>
<symbol id="telephone" version="1.1" xmlns="http://www.w3.org/2000/svg" xmlns:xlink="http://www.w3.org/1999/xlink" x="0px" y="0px"
	 viewBox="0 0 40 40" enable-background="new 0 0 40 40" xml:space="preserve">
    <g>
	<g>
		<g>
			<path fill="#231815" d="M23.5,28.5L23.5,28.5c-0.9,0-1.8-0.3-2.5-0.8c-2.1-1.5-3.5-2.8-4.7-4c-1.2-1.2-2.5-2.6-4-4.7
				c-1.5-2-0.9-4.6,1.4-7c0.7-0.7,1.9-0.7,2.6,0l1.4,1.4c0.3,0.3,0.5,0.8,0.5,1.3c0,0.5-0.2,1-0.5,1.3l-0.6,0.6
				c-0.2,0.2-0.1,0.5,0,0.7c0.7,0.9,1.9,2.2,2.6,2.8c0.7,0.7,1.9,1.9,2.8,2.6c0.2,0.2,0.5,0.2,0.7,0l0.6-0.6c0.7-0.7,1.9-0.7,2.6,0
				l1.4,1.4c0.3,0.3,0.5,0.8,0.5,1.3c0,0.5-0.2,1-0.5,1.3C26.5,27.7,25,28.5,23.5,28.5z M15,12.5c-0.2,0-0.4,0.1-0.6,0.2
				c-2,2-2.4,4.1-1.3,5.7c1.5,2.1,2.7,3.4,3.9,4.6c1.2,1.2,2.5,2.4,4.6,3.9c1.6,1.1,3.7,0.7,5.7-1.3c0.2-0.2,0.2-0.4,0.2-0.6
				c0-0.2-0.1-0.4-0.2-0.6L25.8,23c-0.3-0.3-0.9-0.3-1.2,0L24,23.6c-0.5,0.5-1.3,0.5-2,0c-1-0.7-2.2-2-2.9-2.7c-0.7-0.7-2-2-2.7-2.9
				c-0.5-0.7-0.5-1.5,0-2l0.6-0.6c0.2-0.2,0.2-0.4,0.2-0.6c0-0.2-0.1-0.4-0.2-0.6l-1.4-1.4C15.4,12.6,15.2,12.5,15,12.5z"/>
		</g>
	</g>
    </g>
</symbol>

<symbol id="facebook" version="1.1" xmlns="http://www.w3.org/2000/svg" xmlns:xlink="http://www.w3.org/1999/xlink" x="0px" y="0px"
	 viewBox="0 0 23.101 23.101" style="enable-background:new 0 0 23.101 23.101;" xml:space="preserve">
    <g>
	<path d="M8.258,4.458c0-0.144,0.02-0.455,0.06-0.931c0.043-0.477,0.223-0.976,0.546-1.5c0.32-0.522,0.839-0.991,1.561-1.406
		C11.144,0.208,12.183,0,13.539,0h3.82v4.163h-2.797c-0.277,0-0.535,0.104-0.768,0.309c-0.231,0.205-0.35,0.4-0.35,0.581v2.59h3.914
		c-0.041,0.507-0.086,1-0.138,1.476l-0.155,1.258c-0.062,0.425-0.125,0.819-0.187,1.182h-3.462v11.542H8.258V11.558H5.742V7.643
		h2.516V4.458z"/>
	<g>
	</g>
	<g>
	</g>
	<g>
	</g>
	<g>
	</g>
	<g>
	</g>
	<g>
	</g>
	<g>
	</g>
	<g>
	</g>
	<g>
	</g>
	<g>
	</g>
	<g>
	</g>
	<g>
	</g>
	<g>
	</g>
	<g>
	</g>
	<g>
	</g>
    </g>
    <g>
    </g>
    <g>
    </g>
    <g>
    </g>
    <g>
    </g>
    <g>
    </g>
    <g>
    </g>
    <g>
    </g>
    <g>
    </g>
    <g>
    </g>
    <g>
    </g>
    <g>
    </g>
    <g>
    </g>
    <g>
    </g>
    <g>
    </g>
    <g>
    </g>
</symbol>

<symbol id="twitter" version="1.1" xmlns="http://www.w3.org/2000/svg" xmlns:xlink="http://www.w3.org/1999/xlink" x="0px" y="0px"
	 width="97.637px" height="97.637px" viewBox="0 0 97.637 97.637" style="enable-background:new 0 0 97.637 97.637;"
	 xml:space="preserve">
    <g>
	<path d="M97.523,18.526c-0.14-0.165-0.371-0.221-0.568-0.131c-2.919,1.295-5.99,2.226-9.153,2.776
		c3.358-2.526,5.86-6.024,7.143-10.035c0.062-0.192-0.002-0.402-0.159-0.527c-0.158-0.125-0.377-0.141-0.55-0.038
		c-3.782,2.243-7.878,3.824-12.18,4.701c-3.812-3.956-9.135-6.219-14.644-6.219c-11.204,0-20.318,9.114-20.318,20.317
		c0,1.355,0.131,2.697,0.391,4c-15.518-0.958-30.028-8.408-39.894-20.509c-0.101-0.124-0.254-0.193-0.414-0.177
		c-0.159,0.012-0.301,0.102-0.381,0.239c-1.8,3.088-2.751,6.621-2.751,10.215c0,6.229,2.83,12.053,7.649,15.896
		c-2.481-0.298-4.904-1.079-7.089-2.292c-0.147-0.083-0.33-0.082-0.477,0.003c-0.147,0.084-0.24,0.24-0.244,0.41l-0.002,0.26
		c0,8.946,5.895,16.801,14.282,19.409c-2.209,0.356-4.501,0.332-6.754-0.098c-0.166-0.031-0.34,0.026-0.454,0.154
		c-0.113,0.128-0.151,0.307-0.099,0.469c2.515,7.85,9.503,13.355,17.637,14.041c-6.785,4.971-14.805,7.59-23.279,7.59
		c-1.561,0-3.133-0.093-4.673-0.274c-0.22-0.025-0.438,0.106-0.514,0.317c-0.076,0.213,0.005,0.451,0.195,0.572
		c9.17,5.881,19.773,8.988,30.664,8.988c35.625,0,56.913-28.938,56.913-56.914c0-0.779-0.015-1.554-0.046-2.327
		c3.843-2.811,7.142-6.252,9.802-10.235C97.675,18.929,97.662,18.692,97.523,18.526z"/>
    </g>
    <g>
    </g>
    <g>
    </g>
    <g>
    </g>
    <g>
    </g>
    <g>
    </g>
    <g>
    </g>
    <g>
    </g>
    <g>
    </g>
    <g>
    </g>
    <g>
    </g>
    <g>
    </g>
    <g>
    </g>
    <g>
    </g>
    <g>
    </g>
    <g>
    </g>
</symbol>

<symbol id="arrow" version="1.1" xmlns="http://www.w3.org/2000/svg" xmlns:xlink="http://www.w3.org/1999/xlink" x="0px" y="0px"
	 viewBox="0 0 40 40" enable-background="new 0 0 40 40" xml:space="preserve">
    <g>
	<g>
		<g>
			<path fill="#231815" d="M20,28.5c-4.7,0-8.5-3.8-8.5-8.5s3.8-8.5,8.5-8.5s8.5,3.8,8.5,8.5S24.7,28.5,20,28.5z M20,12.5
				c-4.1,0-7.5,3.4-7.5,7.5s3.4,7.5,7.5,7.5s7.5-3.4,7.5-7.5S24.1,12.5,20,12.5z"/>
		</g>
		<g>
			<path fill="#231815" d="M20,22.1c-0.3,0-0.7-0.1-0.9-0.4l-1.9-1.9c-0.2-0.2-0.2-0.5,0-0.7s0.5-0.2,0.7,0l1.9,1.9
				c0.1,0.1,0.3,0.1,0.5,0l1.9-1.9c0.2-0.2,0.5-0.2,0.7,0s0.2,0.5,0,0.7l-1.9,1.9C20.7,21.9,20.3,22.1,20,22.1z"/>
		</g>
	</g>
    </g>
</symbol>

</svg>